<?xml version="1.0" encoding="utf-8"?><svg viewBox="0 0 448 512" xmlns="http://www.w3.org/2000/svg" xmlns:xlink="http://www.w3.org/1999/xlink"><style>:root>svg{display:none}:root>svg:target{display:block}</style><svg viewBox="0 0 448 512" id="angle-up-solid" xmlns="http://www.w3.org/2000/svg"><!--! Font Awesome Pro 6.4.0 by @fontawesome - https://fontawesome.com License - https://fontawesome.com/license (Commercial License) Copyright 2023 Fonticons, Inc.--><path d="M201.4 137.4c12.5-12.5 32.8-12.5 45.3 0l160 160c12.5 12.5 12.5 32.8 0 45.3s-32.8 12.5-45.3 0L224 205.3 86.6 342.6c-12.5 12.5-32.8 12.5-45.3 0s-12.5-32.8 0-45.3l160-160z"/></svg><svg fill="none" viewBox="0 0 33 20" id="burger-button" xmlns="http://www.w3.org/2000/svg"><path fill="#000" d="M0 0h33v3.837H0zM0 7.674h33v3.837H0zM0 15.35h33v3.837H0z"/></svg><svg viewBox="0 0 40 17" id="icon-menu" xmlns="http://www.w3.org/2000/svg"><g fill="#00001A" fill-rule="evenodd"><path d="M0 0h40v3H0zm0 7h40v3H0zm0 7h40v3H0z"/><path d="M0 0h40v3H0z"/></g></svg><svg viewBox="0 0 32 31" id="icon-menu-close" xmlns="http://www.w3.org/2000/svg"><g fill="#00001A" fill-rule="evenodd"><path d="m2.919.297 28.284 28.284-2.122 2.122L.797 2.419z"/><path d="M.797 28.581 29.081.297l2.122 2.122L2.919 30.703z"/></g></svg><svg fill="none" viewBox="0 0 40 41" id="instagram" xmlns="http://www.w3.org/2000/svg"><path d="M12.166 1.293h.5v-.01h15.905c5.965 0 10.847 4.985 10.847 11.112V29.17c0 6.128-4.883 11.112-10.838 11.112H12.166C6.2 40.281 1.31 35.305 1.31 29.188V12.405C1.31 6.278 6.2 1.293 12.166 1.293Zm-8.848 11.12v16.785c0 4.986 3.928 9.017 8.848 9.017H28.58c4.904 0 8.83-4.032 8.83-9.036V12.405c0-5.004-3.927-9.036-8.839-9.036H12.166c-4.913 0-8.838 4.032-8.848 9.045Zm28.084-3.93c0-.59.454-1.038 1.005-1.038.55 0 1.004.448 1.004 1.038 0 .59-.454 1.038-1.004 1.038s-1.004-.448-1.004-1.038ZM10.345 20.787c0-5.656 4.525-10.266 10.03-10.266 5.504 0 10.029 4.61 10.029 10.266s-4.525 10.266-10.03 10.266c-5.504 0-10.029-4.61-10.029-10.266Zm18.05 0c0-4.534-3.56-8.19-8.02-8.19-4.461 0-8.021 3.656-8.021 8.19 0 4.534 3.56 8.19 8.02 8.19 4.461 0 8.021-3.656 8.021-8.19Z" fill="#070707" stroke="#070707"/></svg><svg fill="none" viewBox="0 0 90 87" id="lightroom" xmlns="http://www.w3.org/2000/svg"><g clip-path="url(#fa)"><path d="M4.206 3.719h81.796v79.565H4.206V3.719Z" fill="url(#fb)"/><path d="M4.206 3.72h81.796v79.564H4.206V3.72ZM.486 87h89.232V0H.487v87Zm52.236-50.38c0-.446 0-1.524-.185-3.605 0-.296.075-.37.296-.482 2.267-.928 7.66-2.566 13.681-2.566.296 0 .446.075.446.372v5.353c0 .297-.11.371-.446.371-2.341-.11-5.8.186-7.103.743v23.46c0 .297-.11.447-.446.447h-5.832c-.296 0-.446-.111-.446-.447V36.62h.035ZM25.211 60.713c-.446 0-.557-.186-.557-.557V20.188c0-.297.11-.482.446-.482h5.875c.296 0 .371.11.371.446V54.58h15.32c.296 0 .41.11.335.446l-.928 5.279c-.075.296-.26.446-.557.446H25.211v-.04Z" fill="#AAD1EB"/></g><defs><radialGradient id="fb" cx="0" cy="0" r="1" gradientUnits="userSpaceOnUse" gradientTransform="matrix(62.1642 0 0 60.1863 31.146 21.551)"><stop stop-color="#39464D" stop-opacity=".98"/><stop offset="1" stop-color="#05151F"/></radialGradient><clipPath id="fa"><path fill="#fff" transform="translate(.487)" d="M0 0h89.231v87H0z"/></clipPath></defs></svg></svg>